<svg xmlns="http://www.w3.org/2000/svg" xmlns:xlink="http://www.w3.org/1999/xlink" viewBox="0 0 500 500"><defs><clipPath id="freepik--clip-path--inject-2"><rect x="55.69" y="125.54" width="99.75" height="258.59" style="fill:none"></rect></clipPath></defs><g id="freepik--background-simple--inject-2"><path d="M459.34,237.11c2.25-29.86-4.7-61-14-88.84-13.82-41.29-40.66-83.63-85.85-93.4-26.06-5.64-52.57.4-74.91,14.52-21.49,13.58-38.25,31.12-64.65,34.52-26.72,3.44-54.14,2-81,2-69,0-125.09,72.55-111.08,148.11s80.06,128,136.1,128c50.36,0,91.79-30.22,139.62-38.33,23.72-4,47.54.74,71-5.29,27.28-7,52.94-23.72,68.05-47.93C452.92,274,457.93,255.81,459.34,237.11Z" style="fill:#F5DEB3"></path><path d="M459.34,237.11c2.25-29.86-4.7-61-14-88.84-13.82-41.29-40.66-83.63-85.85-93.4-26.06-5.64-52.57.4-74.91,14.52-21.49,13.58-38.25,31.12-64.65,34.52-26.72,3.44-54.14,2-81,2-69,0-125.09,72.55-111.08,148.11s80.06,128,136.1,128c50.36,0,91.79-30.22,139.62-38.33,23.72-4,47.54.74,71-5.29,27.28-7,52.94-23.72,68.05-47.93C452.92,274,457.93,255.81,459.34,237.11Z" style="fill:#fff;opacity:0.7000000000000001"></path></g></svg>